<svg height="512" viewBox="0 0 58 58" width="512" xmlns="http://www.w3.org/2000/svg"><g id="Page-1" fill="none" fill-rule="evenodd"><g id="082---Coding-Toolbox" fill-rule="nonzero"><path id="Rectangle-path" d="m36 21h6v18h-6z" fill="#a56a43" transform="matrix(-1 0 0 -1 78 60)"/><path id="Shape" d="m31 22v18h-8v-25c.0032948-1.1032019.8967981-1.9967052 2-2h3.27z" fill="#95a5a5"/><g fill="#3f5c6c"><path id="Shape" d="m31 25v2h-3c-.5522847 0-1-.4477153-1-1s.4477153-1 1-1z"/><path id="Shape" d="m31 29v2h-3c-.5522847 0-1-.4477153-1-1s.4477153-1 1-1z"/><path id="Shape" d="m31 33v2h-3c-.5522847 0-1-.4477153-1-1s.4477153-1 1-1z"/></g><path id="Rectangle-path" d="m3 2h52v4h-52z" fill="#e57e25"/><path id="Shape" d="m12.986 40 .014-13.563c-2.8206656-1.1481482-4.74853406-3.7937915-4.97740493-6.8305689s1.28068761-5.9414871 3.89740493-7.4994311c.2247109-.1316684.5028262-.1324958.7283164-.0021666.2254903.1303293.363603.3717288.3616836.6321666l-.01 4.11c-.0340889 1.6408794 1.2143215 3.0250818 2.85 3.16.822991.0439562 1.6278202-.2526007 2.2255275-.8200443.5977073-.5674437.9356455-1.3557925.9344725-2.1799557v-4.28c-.0004588-.2576067.1361845-.4959991.3587001-.6257998.2225156-.1298008.4972878-.1314008.7212999-.0042002 2.6183505 1.5603112 4.1277471 4.468384 3.8967312 7.5076211-.2310159 3.0392372-2.1626234 5.6857552-4.9867312 6.8323789l-.007 13.563z" fill="#bdc3c7"/><rect id="Rectangle-path" fill="#3f5c6c" height="10" rx="2" transform="matrix(-1 0 0 -1 61 34)" width="5" x="28" y="12"/><path id="Shape" d="m50 17.1c.0020301.3745792-.2299297.7106144-.5808933.8415276-.3509635.1309132-.7463287.028877-.9901067-.2555276-.8193096-1.0638172-2.086251-1.6867578-3.429-1.686v4c-.0032948 1.1032019-.8967981 1.9967052-2 2h-8c-1.1032019-.0032948-1.9967052-.8967981-2-2v-6c.0032948-1.1032019.8967981-1.9967052 2-2h12c1.6568542 0 3 1.3431458 3 3z" fill="#35495e"/><path id="Shape" d="m58 1v51c0 3.3137085-2.6862915 6-6 6h-46c-3.3137085 0-6-2.6862915-6-6v-51c0-.55228475.44771525-1 1-1h2c.55228475 0 1 .44771525 1 1v35c0 1.1045695.8954305 2 2 2h46c1.1045695 0 2-.8954305 2-2v-35c0-.55228475.4477153-1 1-1h2c.5522847 0 1 .44771525 1 1z" fill="#f0c419"/><path id="Shape" d="m23 54c-.2651948-.0000566-.5195073-.1054506-.707-.293l-5-5c-.3903819-.3904999-.3903819-1.0235001 0-1.414l5-5c.3923789-.3789722 1.0160848-.3735524 1.4018186.0121814s.3911536 1.0094397.0121814 1.4018186l-4.293 4.293 4.293 4.293c.2859079.2859943.3714219.7160366.216678 1.0896546-.1547439.3736179-.5192821.6172591-.923678.6173454z" fill="#e57e25"/><path id="Shape" d="m35 54c-.4043959-.0000863-.7689341-.2437275-.923678-.6173454-.1547439-.373618-.0692299-.8036603.216678-1.0896546l4.293-4.293-4.293-4.293c-.3789722-.3923789-.3735524-1.0160848.0121814-1.4018186s1.0094397-.3911536 1.4018186-.0121814l5 5c.3903819.3904999.3903819 1.0235001 0 1.414l-5 5c-.1874927.1875494-.4418052.2929434-.707.293z" fill="#e57e25"/><path id="Shape" d="m27 54c-.3318143.0001218-.6420806-.1643537-.8282135-.439045s-.2238896-.6238213-.1007865-.931955l4-10c.1325455-.3318997.432089-.5678756.7857954-.6190376.3537064-.0511621.7078392.0902623.9290001.371.2211608.2807376.2757501.6581379.1432045.9900376l-4 10c-.1518102.3799891-.5198081.6291502-.929.629z" fill="#e57e25"/></g></g></svg>